<svg xmlns="http://www.w3.org/2000/svg" xmlns:xlink="http://www.w3.org/1999/xlink" fill="none" version="1.1" width="16" height="16" viewBox="0 0 16 16"><defs><clipPath id="master_svg0_0_1137"><rect x="0" y="0" width="16" height="16" rx="0"/></clipPath></defs><g clip-path="url(#master_svg0_0_1137)"><g><path d="M6.5,9.49999L6.5,14Q6.5,14.04924,6.50961,14.09754Q6.51921,14.14584,6.53806,14.19134Q6.5569,14.23684,6.58426,14.27778Q6.61162,14.31873,6.64645,14.35355Q6.68127,14.38837,6.72221,14.41573Q6.76316,14.44309,6.80866,14.46194Q6.85415,14.48078,6.90245,14.49039Q6.95075,14.5,7,14.5Q7.04925,14.5,7.09755,14.49039Q7.14584,14.48078,7.19134,14.46194Q7.23684,14.44309,7.27778,14.41573Q7.31873,14.38837,7.35355,14.35355Q7.38837,14.31873,7.41573,14.27778Q7.44309,14.23684,7.46194,14.19134Q7.48078,14.14584,7.49039,14.09754Q7.5,14.04924,7.5,14L7.5,7.47453Q7.5,6.23247,6.60759,5.361644Q5.72459,4.5,4.48125,4.5Q3.26166,4.5,2.385882,5.363448Q1.5,6.23686,1.5,7.47453L1.5,9.5L1.5,14Q1.5,14.04924,1.509607,14.09754Q1.519215,14.14584,1.53806,14.19134Q1.5569060000000001,14.23684,1.584265,14.27778Q1.611625,14.31873,1.646447,14.35355Q1.681269,14.38837,1.722215,14.41573Q1.763161,14.44309,1.8086579999999999,14.46194Q1.854155,14.48078,1.9024549,14.49039Q1.9507543,14.5,2,14.5Q2.0492457,14.5,2.0975451,14.49039Q2.145845,14.48078,2.191342,14.46194Q2.236839,14.44309,2.277785,14.41573Q2.318731,14.38837,2.353553,14.35355Q2.388375,14.31873,2.415735,14.27778Q2.443094,14.23684,2.4619400000000002,14.19134Q2.480785,14.14584,2.490393,14.09754Q2.5,14.04924,2.5,14L2.5,9.5L2.5,7.47453Q2.5,6.6552299999999995,3.08796,6.07555Q3.67172,5.5,4.48125,5.5Q5.31753,5.5,5.909190000000001,6.07735Q6.5,6.6538699999999995,6.5,7.47453L6.5,9.49999Z" fill-rule="evenodd" fill="#666666" fill-opacity="1"/></g><g><path d="M11.5,9.49999L11.5,14Q11.5,14.04924,11.50961,14.09754Q11.519210000000001,14.14584,11.53806,14.19134Q11.556899999999999,14.23684,11.58426,14.27778Q11.61162,14.31873,11.64645,14.35355Q11.68127,14.38837,11.72221,14.41573Q11.76316,14.44309,11.80866,14.46194Q11.85415,14.48078,11.90245,14.49039Q11.95075,14.5,12,14.5Q12.04925,14.5,12.09755,14.49039Q12.14584,14.48078,12.19134,14.46194Q12.23684,14.44309,12.27778,14.41573Q12.31873,14.38837,12.35355,14.35355Q12.38837,14.31873,12.41573,14.27778Q12.44309,14.23684,12.46194,14.19134Q12.48078,14.14584,12.49039,14.09754Q12.5,14.04924,12.5,14L12.5,7.47453Q12.5,6.23247,11.60759,5.361644Q10.72459,4.5,9.48125,4.5Q8.26166,4.5,7.385882,5.363448Q6.5,6.23686,6.5,7.47453L6.5,9.5L6.5,14Q6.5,14.04924,6.509607,14.09754Q6.519215,14.14584,6.53806,14.19134Q6.556906,14.23684,6.584265,14.27778Q6.611625,14.31873,6.646447,14.35355Q6.681269,14.38837,6.722215,14.41573Q6.763161,14.44309,6.808658,14.46194Q6.854155,14.48078,6.9024549,14.49039Q6.9507543,14.5,7,14.5Q7.0492457,14.5,7.0975451,14.49039Q7.145845,14.48078,7.191342,14.46194Q7.236839,14.44309,7.277785,14.41573Q7.318731,14.38837,7.353553,14.35355Q7.388375,14.31873,7.415735,14.27778Q7.443094,14.23684,7.46194,14.19134Q7.480785,14.14584,7.490393,14.09754Q7.5,14.04924,7.5,14L7.5,9.5L7.5,7.47453Q7.5,6.6552299999999995,8.08796,6.07555Q8.67172,5.5,9.48125,5.5Q10.31753,5.5,10.90919,6.07735Q11.5,6.6538699999999995,11.5,7.47453L11.5,9.49999Z" fill-rule="evenodd" fill="#666666" fill-opacity="1"/></g><g><path d="M12.5,2.745174L12.5,3Q12.5,3.04925,12.509607,3.09755Q12.519214999999999,3.1458399999999997,12.53806,3.1913400000000003Q12.556906,3.23684,12.584265,3.27779Q12.611625,3.31873,12.646447,3.3535500000000003Q12.681269,3.3883799999999997,12.722215,3.41573Q12.763161,3.4430899999999998,12.808658,3.4619400000000002Q12.854155,3.48079,12.9024549,3.49039Q12.9507543,3.5,13,3.5Q13.0492457,3.5,13.0975451,3.49039Q13.145845,3.48079,13.191342,3.4619400000000002Q13.236839,3.4430899999999998,13.277785,3.41573Q13.318731,3.3883799999999997,13.353553,3.3535500000000003Q13.388375,3.31873,13.415735,3.27779Q13.443094,3.23684,13.46194,3.1913400000000003Q13.480785000000001,3.1458399999999997,13.490393,3.09755Q13.5,3.04925,13.5,3L13.5,2.745174Q13.5,2.64543,13.572619,2.574194Q13.648254,2.5,13.755625,2.5Q13.853918,2.5,13.926952,2.572385Q14,2.644783,14,2.745174Q14,2.833333,13.951132,2.898491L13.35,3.7L12.6,4.7Q12.540326,4.77956,12.515643,4.87591Q12.49096,4.97225,12.505025,5.07071Q12.51909,5.169169999999999,12.569763,5.25475Q12.620435,5.34033,12.7,5.4Q12.833333,5.5,13,5.5L14.5,5.5Q14.54925,5.5,14.59754,5.49039Q14.64584,5.48078,14.69134,5.46194Q14.73684,5.44309,14.77778,5.41573Q14.81873,5.38837,14.85355,5.35355Q14.88838,5.31873,14.91573,5.27778Q14.94309,5.23684,14.96194,5.19134Q14.98079,5.14584,14.99039,5.09754Q15,5.04925,15,5Q15,4.95075,14.99039,4.90245Q14.98079,4.854150000000001,14.96194,4.80866Q14.94309,4.76316,14.91573,4.7222100000000005Q14.88838,4.68127,14.85355,4.64645Q14.81873,4.61162,14.77778,4.5842600000000004Q14.73684,4.55691,14.69134,4.53806Q14.64584,4.51921,14.59755,4.50961Q14.54925,4.5,14.5,4.5L14,4.5L14.15,4.3L14.75113,3.4984900000000003Q15,3.16667,15,2.745174Q15,2.227952,14.6309,1.862129Q14.26552,1.5,13.755625,1.5Q13.239664,1.5,12.872346,1.860319Q12.5,2.225571,12.5,2.745174Z" fill-rule="evenodd" fill="#666666" fill-opacity="1"/></g></g></svg>