<svg xmlns="http://www.w3.org/2000/svg" xmlns:xlink="http://www.w3.org/1999/xlink" fill="none" version="1.1" width="16" height="16" viewBox="0 0 16 16"><defs><clipPath id="master_svg0_0_1108"><rect x="0" y="0" width="16" height="16" rx="0"/></clipPath></defs><g clip-path="url(#master_svg0_0_1108)"><g transform="matrix(1,-8.742277657347586e-8,8.742277657347586e-8,1,-3.4969110629390343e-7,2.6226832972042757e-7)"><path d="M3,3.5L13,3.5Q13.0492,3.5,13.0975,3.509607Q13.1458,3.519215,13.1913,3.5380599999999998Q13.2368,3.556906,13.2778,3.584265Q13.3187,3.611625,13.3536,3.646447Q13.3884,3.681269,13.4157,3.722215Q13.4431,3.763161,13.4619,3.808658Q13.4808,3.854155,13.4904,3.9024549Q13.5,3.9507543,13.5,4Q13.5,4.0492457,13.4904,4.0975451Q13.4808,4.145845,13.4619,4.191342Q13.4431,4.236839,13.4157,4.277785Q13.3884,4.318731,13.3536,4.353553Q13.3187,4.388375,13.2778,4.415735Q13.2368,4.443094,13.1913,4.46194Q13.1458,4.480785,13.0975,4.490393Q13.0492,4.5,13,4.5L3,4.5Q2.9507543,4.5,2.9024549,4.490393Q2.854155,4.480785,2.808658,4.46194Q2.763161,4.443094,2.722215,4.415735Q2.681269,4.388375,2.646447,4.353553Q2.611625,4.318731,2.584265,4.277785Q2.556906,4.236839,2.5380599999999998,4.191342Q2.519215,4.145845,2.509607,4.0975451Q2.5,4.0492457,2.5,4Q2.5,3.9507543,2.509607,3.9024549Q2.519215,3.854155,2.5380599999999998,3.808658Q2.556906,3.763161,2.584265,3.722215Q2.611625,3.681269,2.646447,3.646447Q2.681269,3.611625,2.722215,3.584265Q2.763161,3.556906,2.808658,3.5380599999999998Q2.854155,3.519215,2.9024549,3.509607Q2.9507543,3.5,3,3.5Z" fill-rule="evenodd" fill="#666666" fill-opacity="1"/></g><g transform="matrix(1,-8.742277657347586e-8,8.742277657347586e-8,1,-6.11959436014331e-7,2.6226832972042757e-7)"><path d="M12.0625,6.609687L13.3123,7.609565Q13.3557,7.64427,13.3904,7.687652Q13.4212,7.726106,13.4439,7.769823Q13.4665,7.81354,13.4802,7.86084Q13.4939,7.9081399999999995,13.4982,7.957205Q13.5024,8.00627,13.4969,8.05521Q13.4915,8.10416,13.4766,8.1511Q13.4617,8.19805,13.438,8.24118Q13.4142,8.28432,13.3825,8.322Q13.3508,8.35967,13.3123,8.39043L12.06268,9.39017L12.06235,9.39043Q11.92539,9.5,11.75,9.5Q11.70075,9.5,11.65245,9.49039Q11.60415,9.480789999999999,11.55866,9.46194Q11.51316,9.44309,11.47221,9.41574Q11.43127,9.38838,11.39645,9.35355Q11.36162,9.31873,11.33426,9.27779Q11.3069,9.23684,11.28806,9.19134Q11.26921,9.14585,11.25961,9.09755Q11.25,9.04925,11.25,9Q11.25,8.88608,11.29935,8.78341Q11.3487,8.68073,11.43765,8.60957L11.43806,8.60924L11.57461,8.5L3,8.5Q2.9507543,8.5,2.9024549,8.49039Q2.854155,8.48078,2.808658,8.46194Q2.763161,8.44309,2.722215,8.41573Q2.681269,8.38837,2.646447,8.35355Q2.611625,8.31873,2.584265,8.27778Q2.556906,8.23684,2.5380599999999998,8.19134Q2.519215,8.14584,2.509607,8.09754Q2.5,8.04924,2.5,7.999999Q2.5,7.950754,2.509607,7.902454Q2.519215,7.854155,2.5380599999999998,7.808658Q2.556906,7.763161,2.584265,7.722214Q2.611625,7.681268,2.646447,7.646446Q2.681269,7.611624,2.722215,7.584265Q2.763161,7.556905,2.808658,7.53806Q2.854155,7.519214,2.9024549,7.509607Q2.9507543,7.499999,3,7.499999L11.57461,7.499999L11.4378,7.390556L11.43765,7.390434Q11.3487,7.31927,11.29935,7.216594Q11.25,7.113919,11.25,7Q11.25,6.9507543,11.25961,6.9024549Q11.26921,6.854155,11.28806,6.808658Q11.3069,6.763161,11.33426,6.722215Q11.36162,6.681269,11.39645,6.646447Q11.43127,6.611625,11.47221,6.584265Q11.51316,6.556906,11.55866,6.53806Q11.60415,6.519215,11.65245,6.509607Q11.70075,6.5,11.75,6.5Q11.92539,6.5,12.06235,6.609566L12.0625,6.609687Z" fill-rule="evenodd" fill="#666666" fill-opacity="1"/></g><g transform="matrix(1,-8.742277657347586e-8,8.742277657347586e-8,1,-0.0000010490733188817103,2.6226832972042757e-7)"><path d="M3,11.5L13,11.5Q13.0492,11.5,13.0975,11.509607Q13.1458,11.519214999999999,13.1913,11.53806Q13.2368,11.556906,13.2778,11.584265Q13.3187,11.611625,13.3536,11.646447Q13.3884,11.681269,13.4157,11.722215Q13.4431,11.763161,13.4619,11.808658Q13.4808,11.854155,13.4904,11.9024549Q13.5,11.9507543,13.5,12Q13.5,12.0492457,13.4904,12.0975451Q13.4808,12.145845,13.4619,12.191342Q13.4431,12.236839,13.4157,12.277785Q13.3884,12.318731,13.3536,12.353553Q13.3187,12.388375,13.2778,12.415735Q13.2368,12.443094,13.1913,12.46194Q13.1458,12.480785000000001,13.0975,12.490393Q13.0492,12.5,13,12.5L3,12.5Q2.9507543,12.5,2.9024549,12.490393Q2.854155,12.480785000000001,2.808658,12.46194Q2.763161,12.443094,2.722215,12.415735Q2.681269,12.388375,2.646447,12.353553Q2.611625,12.318731,2.584265,12.277785Q2.556906,12.236839,2.5380599999999998,12.191342Q2.519215,12.145845,2.509607,12.0975451Q2.5,12.0492457,2.5,12Q2.5,11.9507543,2.509607,11.9024549Q2.519215,11.854155,2.5380599999999998,11.808658Q2.556906,11.763161,2.584265,11.722215Q2.611625,11.681269,2.646447,11.646447Q2.681269,11.611625,2.722215,11.584265Q2.763161,11.556906,2.808658,11.53806Q2.854155,11.519214999999999,2.9024549,11.509607Q2.9507543,11.5,3,11.5Z" fill-rule="evenodd" fill="#666666" fill-opacity="1"/></g></g></svg>