<svg xmlns="http://www.w3.org/2000/svg" xmlns:xlink="http://www.w3.org/1999/xlink" fill="none" version="1.1" width="16" height="16" viewBox="0 0 16 16"><defs><clipPath id="master_svg0_0_1117"><rect x="0" y="0" width="16" height="16" rx="0"/></clipPath></defs><g clip-path="url(#master_svg0_0_1117)"><g><rect x="2.5" y="2.5" width="11" height="11" rx="1.5" fill-opacity="0" stroke-opacity="1" stroke="#666666" fill="none" stroke-width="1"/></g><g><path d="M5.642653,5.349719Q5.57407,5.27964,5.537035,5.188847Q5.5,5.0980552,5.5,5Q5.5,4.9507543,5.509607,4.9024549Q5.519215,4.854155,5.53806,4.808658Q5.556906,4.763161,5.584265,4.722215Q5.611625,4.681269,5.646447,4.646447Q5.681269,4.611625,5.722215,4.584265Q5.763161,4.556906,5.808658,4.53806Q5.854155,4.519215,5.9024549,4.509607Q5.9507543,4.5,6,4.5Q6.100859,4.5,6.19383,4.539099Q6.286802,4.578198,6.357347,4.650281L8.3592,6.69579L8.35934,6.69594Q8.42792,6.76602,8.46496,6.85681Q8.50199,6.9475999999999996,8.50199,7.04566Q8.50199,7.0949,8.49238,7.1432Q8.48278,7.1915,8.46393,7.237Q8.44509,7.28249,8.41773,7.32344Q8.39037,7.36439,8.355550000000001,7.39921Q8.32072,7.43403,8.27978,7.46139Q8.23883,7.48875,8.19333,7.5076Q8.14784,7.52644,8.099540000000001,7.5360499999999995Q8.05124,7.54566,8.00199,7.54566Q7.90113,7.54566,7.80816,7.50656Q7.71519,7.46746,7.64465,7.395379999999999L5.642653,5.349719Z" fill-rule="evenodd" fill="#666666" fill-opacity="1"/></g><g transform="matrix(1,0,0,-1,0,14.02448558807373)"><path d="M7.631944513763428,7.366013794036865Q7.561518513763428,7.295674794036866,7.523399513763428,7.203726794036865Q7.485280513763428,7.111778994036865,7.485280513763428,7.012242794036865Q7.485280513763428,6.962997094036865,7.494887513763428,6.914697694036866Q7.504495513763428,6.866397794036866,7.5233405137634275,6.8209007940368656Q7.542186513763427,6.775403794036865,7.569545513763428,6.7344577940368655Q7.596905513763428,6.693511794036866,7.631727513763428,6.6586897940368655Q7.666549513763428,6.623867794036865,7.707495513763428,6.5965077940368655Q7.748441513763428,6.569148794036865,7.793938513763428,6.550302794036865Q7.839435513763428,6.531457794036865,7.887735413763428,6.521849794036865Q7.936034813763428,6.512242794036865,7.985280513763428,6.512242794036865Q8.084656713763428,6.512242794036865,8.176480513763428,6.550243794036866Q8.268303513763428,6.588245794036865,8.338616513763428,6.658471794036865L10.353340513763428,8.670712794036865Q10.423760513763428,8.741052794036865,10.461880513763427,8.833002794036865Q10.500000513763428,8.924952794036866,10.500000513763428,9.024482794036865Q10.500000513763428,9.073732794036864,10.490390513763428,9.122032794036866Q10.480790513763427,9.170332794036865,10.461940513763427,9.215822794036866Q10.443100513763428,9.261322794036865,10.415740513763428,9.302272794036865Q10.388380513763428,9.343212794036866,10.353550513763427,9.378042794036865Q10.318730513763427,9.412862794036865,10.277790513763428,9.440222794036865Q10.236840513763427,9.467582794036865,10.191340513763429,9.486422794036866Q10.145850513763428,9.505272794036866,10.097550513763428,9.514872794036865Q10.049250513763427,9.524482794036865,10.000000513763428,9.524482794036865Q9.900630513763428,9.524482794036865,9.808800513763428,9.486482794036865Q9.716980513763428,9.448482794036865,9.646670513763429,9.378252794036865L7.631944513763428,7.366013794036865Z" fill-rule="evenodd" fill="#666666" fill-opacity="1"/></g><g transform="matrix(1,-2.4492937051703357e-16,2.4492937051703357e-16,1,-1.7763568394002505e-15,1.7763568394002505e-15)"><path d="M5.466426849365234,6.5L10.533576849365234,6.5Q10.582816849365233,6.5,10.631116849365235,6.509607Q10.679416849365234,6.519215,10.724916849365234,6.53806Q10.770416849365233,6.556906,10.811356849365234,6.584265Q10.852306849365235,6.611625,10.887126849365234,6.646447Q10.921946849365234,6.681269,10.949306849365234,6.722215Q10.976666849365234,6.763161,10.995516849365234,6.808658Q11.014356849365235,6.854155,11.023966849365234,6.9024549Q11.033576849365234,6.9507543,11.033576849365234,7Q11.033576849365234,7.0492457,11.023966849365234,7.0975451Q11.014356849365235,7.145845,10.995516849365234,7.191342Q10.976666849365234,7.236839,10.949306849365234,7.277785Q10.921946849365234,7.318731,10.887126849365234,7.353553Q10.852306849365235,7.388375,10.811356849365234,7.415735Q10.770416849365233,7.443094,10.724916849365234,7.46194Q10.679416849365234,7.480785,10.631116849365235,7.490393Q10.582816849365233,7.5,10.533576849365234,7.5L5.466426849365234,7.5Q5.417181149365234,7.5,5.368881749365235,7.490393Q5.320581849365235,7.480785,5.275084849365235,7.46194Q5.229587849365235,7.443094,5.188641849365235,7.415735Q5.147695849365235,7.388375,5.112873849365235,7.353553Q5.0780518493652345,7.318731,5.050691849365235,7.277785Q5.023332849365234,7.236839,5.004486849365234,7.191342Q4.985641849365234,7.145845,4.976033849365234,7.0975451Q4.966426849365234,7.0492457,4.966426849365234,7Q4.966426849365234,6.9507543,4.976033849365234,6.9024549Q4.985641849365234,6.854155,5.004486849365234,6.808658Q5.023332849365234,6.763161,5.050691849365235,6.722215Q5.0780518493652345,6.681269,5.112873849365235,6.646447Q5.147695849365235,6.611625,5.188641849365235,6.584265Q5.229587849365235,6.556906,5.275084849365235,6.53806Q5.320581849365235,6.519215,5.368881749365235,6.509607Q5.417181149365234,6.5,5.466426849365234,6.5Z" fill-rule="evenodd" fill="#666666" fill-opacity="1"/></g><g transform="matrix(1,-8.742277657347586e-8,8.742277657347586e-8,1,-8.093277497067675e-7,4.469185306277268e-7)"><path d="M5.112152099609375,8.757630348205566L10.887852099609376,8.757630348205566Q10.937092099609375,8.757630348205566,10.985392099609374,8.767237348205567Q11.033692099609375,8.776845348205566,11.079192099609376,8.795690348205566Q11.124682099609375,8.814536348205566,11.165632099609375,8.841895348205567Q11.206582099609374,8.869255348205566,11.241402099609374,8.904077348205567Q11.276222099609374,8.938899348205567,11.303582099609375,8.979845348205567Q11.330942099609375,9.020791348205567,11.349782099609374,9.066288348205566Q11.368632099609375,9.111785348205567,11.378242099609375,9.160085248205567Q11.387852099609376,9.208384648205566,11.387852099609376,9.257630348205566Q11.387852099609376,9.306876048205567,11.378242099609375,9.355175448205566Q11.368632099609375,9.403475348205566,11.349792099609374,9.448972348205567Q11.330942099609375,9.494469348205566,11.303582099609375,9.535415348205566Q11.276222099609374,9.576361348205566,11.241402099609374,9.611183348205566Q11.206582099609374,9.646005348205566,11.165632099609375,9.673365348205566Q11.124682099609375,9.700724348205567,11.079192099609376,9.719570348205567Q11.033692099609375,9.738415348205567,10.985392099609374,9.748023348205566Q10.937092099609375,9.757630348205566,10.887852099609376,9.757630348205566L5.112152099609375,9.757630348205566Q5.062906399609375,9.757630348205566,5.014606999609375,9.748023348205566Q4.966307099609375,9.738415348205567,4.920810099609375,9.719570348205567Q4.875313099609375,9.700724348205567,4.834367099609375,9.673365348205566Q4.793421099609375,9.646005348205566,4.758599099609375,9.611183348205566Q4.723777099609375,9.576361348205566,4.696417099609375,9.535415348205566Q4.669058099609375,9.494469348205566,4.650212099609375,9.448972348205567Q4.631367099609375,9.403475348205566,4.621759099609375,9.355175448205566Q4.612152099609375,9.306876048205567,4.612152099609375,9.257630348205566Q4.612152099609375,9.208384648205566,4.621759099609375,9.160085248205567Q4.631367099609375,9.111785348205567,4.650212099609375,9.066288348205566Q4.669058099609375,9.020791348205567,4.696417099609375,8.979845348205567Q4.723777099609375,8.938899348205567,4.758599099609375,8.904077348205567Q4.793421099609375,8.869255348205566,4.834367099609375,8.841895348205567Q4.875313099609375,8.814536348205566,4.920810099609375,8.795690348205566Q4.966307099609375,8.776845348205566,5.014606999609375,8.767237348205567Q5.062906399609375,8.757630348205566,5.112152099609375,8.757630348205566Z" fill-rule="evenodd" fill="#666666" fill-opacity="1"/></g><g transform="matrix(0,1,-1,0,15,-1)"><path d="M8,6.5L13,6.5Q13.04925,6.5,13.09755,6.509607Q13.14584,6.519215,13.19134,6.53806Q13.23684,6.556906,13.27778,6.584265Q13.31873,6.611625,13.35355,6.646447Q13.38837,6.681269,13.41573,6.722215Q13.44309,6.763161,13.46194,6.808658Q13.48078,6.854155,13.49039,6.9024549Q13.5,6.9507543,13.5,7Q13.5,7.0492457,13.49039,7.0975451Q13.48078,7.145845,13.46194,7.191342Q13.44309,7.236839,13.41573,7.277785Q13.38837,7.318731,13.35355,7.353553Q13.31873,7.388375,13.27778,7.415735Q13.23684,7.443094,13.19134,7.46194Q13.14584,7.480785,13.09755,7.490393Q13.04925,7.5,13,7.5L8,7.5Q7.9507543,7.5,7.9024549,7.490393Q7.854155,7.480785,7.808658,7.46194Q7.763161,7.443094,7.722215,7.415735Q7.681269,7.388375,7.646447,7.353553Q7.611625,7.318731,7.584265,7.277785Q7.556906,7.236839,7.53806,7.191342Q7.519215,7.145845,7.509607,7.0975451Q7.5,7.0492457,7.5,7Q7.5,6.9507543,7.509607,6.9024549Q7.519215,6.854155,7.53806,6.808658Q7.556906,6.763161,7.584265,6.722215Q7.611625,6.681269,7.646447,6.646447Q7.681269,6.611625,7.722215,6.584265Q7.763161,6.556906,7.808658,6.53806Q7.854155,6.519215,7.9024549,6.509607Q7.9507543,6.5,8,6.5Z" fill-rule="evenodd" fill="#666666" fill-opacity="1"/></g></g></svg>